<svg width="800" height="800" viewBox="0 0 800 800" xmlns="http://www.w3.org/2000/svg">
  <!-- Space background with gradient -->
  <defs>
    <radialGradient id="spaceGradient" cx="50%" cy="50%" r="70%" fx="50%" fy="50%">
      <stop offset="0%" stop-color="#0A0E2A"/>
      <stop offset="70%" stop-color="#0A0E2A"/>
      <stop offset="100%" stop-color="#000000"/>
    </radialGradient>
    
    <!-- Planet textures -->
    <radialGradient id="planetGradient1" cx="40%" cy="40%" r="60%" fx="40%" fy="40%">
      <stop offset="0%" stop-color="#C85A17"/>
      <stop offset="80%" stop-color="#7E3517"/>
      <stop offset="100%" stop-color="#7E2217"/>
    </radialGradient>
    
    <radialGradient id="planetGradient2" cx="50%" cy="50%" r="100%" fx="50%" fy="50%">
      <stop offset="0%" stop-color="#659EC7"/>
      <stop offset="70%" stop-color="#306EFF"/>
      <stop offset="100%" stop-color="#151B8D"/>
    </radialGradient>
    
    <radialGradient id="moonGradient" cx="40%" cy="40%" r="60%" fx="40%" fy="40%">
      <stop offset="0%" stop-color="#CFCFC4"/>
      <stop offset="80%" stop-color="#ADADAD"/>
      <stop offset="100%" stop-color="#9A9A9A"/>
    </radialGradient>
    
    <filter id="glow" x="-50%" y="-50%" width="200%" height="200%">
      <feGaussianBlur stdDeviation="10" result="blur"/>
      <feComposite in="SourceGraphic" in2="blur" operator="over"/>
    </filter>
  </defs>
  
  <!-- Space background -->
  <rect width="800" height="800" fill="url(#spaceGradient)"/>
  
  <!-- Stars -->
  <g id="stars">
    <!-- Small stars -->
    <g fill="white">
      <circle cx="50" cy="50" r="1.5"/>
      <circle cx="120" cy="80" r="1"/>
      <circle cx="200" cy="30" r="0.8"/>
      <circle cx="280" cy="120" r="1.2"/>
      <circle cx="350" cy="50" r="1"/>
      <circle cx="400" cy="200" r="0.7"/>
      <circle cx="450" cy="320" r="1.3"/>
      <circle cx="500" cy="100" r="0.9"/>
      <circle cx="550" cy="250" r="1.1"/>
      <circle cx="600" cy="180" r="0.8"/>
      <circle cx="650" cy="300" r="1"/>
      <circle cx="700" cy="70" r="1.2"/>
      <circle cx="750" cy="150" r="0.9"/>
      <circle cx="100" cy="350" r="1.1"/>
      <circle cx="150" cy="400" r="0.8"/>
      <circle cx="200" cy="450" r="1.3"/>
      <circle cx="250" cy="500" r="0.7"/>
      <circle cx="300" cy="550" r="1"/>
      <circle cx="350" cy="600" r="1.2"/>
      <circle cx="400" cy="650" r="0.9"/>
      <circle cx="450" cy="700" r="1.1"/>
      <circle cx="500" cy="750" r="0.8"/>
      <circle cx="550" cy="500" r="1"/>
      <circle cx="600" cy="450" r="1.3"/>
      <circle cx="650" cy="400" r="0.7"/>
      <circle cx="700" cy="350" r="1.2"/>
      <circle cx="750" cy="600" r="0.9"/>
      <circle cx="700" cy="500" r="1.1"/>
      <circle cx="650" cy="550" r="0.8"/>
      <circle cx="600" cy="600" r="1"/>
      <circle cx="550" cy="650" r="1.2"/>
      <circle cx="500" cy="700" r="0.9"/>
      <circle cx="450" cy="750" r="1.1"/>
      <!-- Add more stars as needed -->
    </g>
    
    <!-- Larger glowing stars -->
    <g filter="url(#glow)">
      <circle cx="180" cy="220" r="2" fill="white"/>
      <circle cx="420" cy="380" r="2.2" fill="white"/>
      <circle cx="630" cy="120" r="2.5" fill="white"/>
      <circle cx="320" cy="680" r="2.3" fill="white"/>
      <circle cx="720" cy="580" r="2.1" fill="white"/>
    </g>
  </g>
  
  <!-- Planets -->
  <!-- Main planet -->
  <g transform="translate(550, 550)">
    <circle cx="0" cy="0" r="120" fill="url(#planetGradient1)"/>
    
    <!-- Planet details/craters -->
    <circle cx="-60" cy="-40" r="15" fill="#843A11" opacity="0.6"/>
    <circle cx="40" cy="20" r="20" fill="#843A11" opacity="0.5"/>
    <circle cx="-20" cy="50" r="12" fill="#843A11" opacity="0.7"/>
    <circle cx="70" cy="-50" r="18" fill="#843A11" opacity="0.6"/>
    
    <!-- Planet ring -->
    <ellipse cx="0" cy="0" rx="180" ry="30" fill="none" stroke="#B87D56" stroke-width="8" opacity="0.7" transform="rotate(-20)"/>
    <ellipse cx="0" cy="0" rx="160" ry="25" fill="none" stroke="#C8A99E" stroke-width="4" opacity="0.5" transform="rotate(-20)"/>
  </g>
  
  <!-- Secondary planet -->
  <g transform="translate(200, 320)">
    <circle cx="0" cy="0" r="80" fill="url(#planetGradient2)"/>
    
    <!-- Planet atmosphere glow -->
    <circle cx="0" cy="0" r="85" fill="none" stroke="#729FF1" stroke-width="5" opacity="0.6"/>
    
    <!-- Continents -->
    <path d="M-20,-40 C-10,-35 0,-38 10,-30 C20,-25 25,-15 30,-5 C32,5 28,15 32,25 C25,35 15,40 5,38 C-5,42 -15,40 -25,35 C-35,30 -40,20 -38,10 C-42,0 -40,-10 -35,-20 C-30,-30 -25,-35 -20,-40 Z" fill="#4AA02C" opacity="0.6"/>
    <path d="M-30,20 C-25,25 -20,22 -15,25 C-10,30 -5,32 0,35 C5,38 10,40 15,38 C20,35 25,30 22,25 C25,20 22,15 18,10 C15,5 10,0 5,-2 C0,-4 -5,-5 -10,-3 C-15,0 -20,5 -25,10 C-30,15 -32,18 -30,20 Z" fill="#4AA02C" opacity="0.6"/>
    
    <!-- Moon -->
    <g transform="translate(120, -40)">
      <circle cx="0" cy="0" r="15" fill="url(#moonGradient)"/>
      <circle cx="-5" cy="-5" r="3" fill="#8E8E8E" opacity="0.8"/>
      <circle cx="7" cy="3" r="2" fill="#8E8E8E" opacity="0.6"/>
    </g>
  </g>
  
  <!-- Spaceship -->
  <g transform="translate(400, 200) rotate(15)">
    <!-- Ship body -->
    <ellipse cx="0" cy="0" rx="30" ry="10" fill="#C0C0C0"/>
    <ellipse cx="0" cy="0" rx="26" ry="8" fill="#A5A5A5"/>
    
    <!-- Cockpit -->
    <circle cx="20" cy="0" r="7" fill="#4682B4"/>
    <circle cx="20" cy="0" r="5" fill="#6495ED"/>
    
    <!-- Wings -->
    <polygon points="-20,-5 -35,-15 -30,0 -35,15 -20,5" fill="#B0B0B0"/>
    <polygon points="-20,-5 -35,-15 -30,0" fill="#A0A0A0"/>
    
    <!-- Engines -->
    <rect x="-35" y="-3" width="8" height="6" fill="#696969"/>
    <!-- Engine glow -->
    <ellipse cx="-39" cy="0" rx="8" ry="4" fill="#FF4500" opacity="0.8" filter="url(#glow)"/>
    <ellipse cx="-43" cy="0" rx="6" ry="3" fill="#FFA500" opacity="0.7" filter="url(#glow)"/>
  </g>
  
  <!-- Distant galaxy -->
  <g transform="translate(100, 100) rotate(30)">
    <ellipse cx="0" cy="0" rx="60" ry="15" fill="#C16FE1" opacity="0.2"/>
    <ellipse cx="0" cy="0" rx="45" ry="12" fill="#BB6BD9" opacity="0.2"/>
    <ellipse cx="0" cy="0" rx="30" ry="8" fill="#A74AC7" opacity="0.3"/>
    <ellipse cx="0" cy="0" rx="15" ry="5" fill="#9370DB" opacity="0.4"/>
  </g>
  
  <!-- Shooting star -->
  <g>
    <line x1="600" y1="100" x2="650" y2="150" stroke="white" stroke-width="2" opacity="0.7"/>
    <line x1="600" y1="100" x2="500" y2="0" stroke="white" stroke-width="1.5" opacity="0.5"/>
    <circle cx="600" cy="100" r="2" fill="white" opacity="0.9"/>
  </g>
  
  <!-- Comet -->
  <g transform="translate(700, 350) rotate(-30)">
    <ellipse cx="0" cy="0" rx="8" ry="5" fill="#F0F8FF"/>
    <path d="M-8,0 C-20,-5 -40,-7 -100,-10" stroke="#F0F8FF" stroke-width="3" opacity="0.4"/>
    <path d="M-8,0 C-30,-2 -60,-3 -130,-3" stroke="#F0F8FF" stroke-width="2" opacity="0.3"/>
    <path d="M-8,0 C-20,5 -40,7 -90,8" stroke="#F0F8FF" stroke-width="3" opacity="0.4"/>
  </g>
</svg> 