<?xml version="1.0" encoding="UTF-8" standalone="no"?>
<svg width="800" height="600" viewBox="0 0 800 600" xmlns="http://www.w3.org/2000/svg">
  <!-- Base wall color - gradient from top to bottom -->
  <defs>
    <linearGradient id="wallGradient" x1="0%" y1="0%" x2="0%" y2="100%">
      <stop offset="0%" stop-color="#faf9f7" />
      <stop offset="100%" stop-color="#efeae5" />
    </linearGradient>
    
    <!-- Floor carpet gradient -->
    <linearGradient id="carpetGradient" x1="0%" y1="0%" x2="0%" y2="100%">
      <stop offset="0%" stop-color="rgba(100, 130, 160, 0.3)" />
      <stop offset="100%" stop-color="rgba(70, 100, 130, 0.4)" />
    </linearGradient>
    
    <!-- Edge gradient for depth -->
    <linearGradient id="edgeGradient" x1="0%" y1="0%" x2="30%" y2="30%">
      <stop offset="0%" stop-color="rgba(0, 0, 0, 0.1)" />
      <stop offset="100%" stop-color="rgba(0, 0, 0, 0)" />
    </linearGradient>
    
    <!-- Cabinet gradient -->
    <linearGradient id="cabinetGradient" x1="0%" y1="0%" x2="100%" y2="100%">
      <stop offset="0%" stop-color="#b0b0b0" />
      <stop offset="100%" stop-color="#909090" />
    </linearGradient>
    
    <!-- Bookshelf gradient -->
    <linearGradient id="shelfGradient" x1="0%" y1="0%" x2="100%" y2="100%">
      <stop offset="0%" stop-color="#b0a090" />
      <stop offset="100%" stop-color="#a08070" />
    </linearGradient>
    
    <!-- Desk gradient -->
    <linearGradient id="deskGradient" x1="0%" y1="0%" x2="100%" y2="100%">
      <stop offset="0%" stop-color="#e0d0c8" />
      <stop offset="100%" stop-color="#d0c0b8" />
    </linearGradient>
    
    <!-- Picture gradient -->
    <linearGradient id="pictureGradient" x1="0%" y1="0%" x2="100%" y2="100%">
      <stop offset="0%" stop-color="#d0e0f0" />
      <stop offset="70%" stop-color="#a0c0e0" />
      <stop offset="100%" stop-color="#80a0d0" />
    </linearGradient>
    
    <!-- Sky gradient for window -->
    <linearGradient id="skyGradient" x1="0%" y1="0%" x2="0%" y2="100%">
      <stop offset="0%" stop-color="#a0c8f0" />
      <stop offset="100%" stop-color="#d0e0f0" />
    </linearGradient>
  </defs>
  
  <!-- Wall background -->
  <rect x="0" y="0" width="800" height="600" fill="url(#wallGradient)" />
  
  <!-- Floor carpet -->
  <rect x="0" y="510" width="800" height="90" fill="url(#carpetGradient)" />
  
  <!-- Carpet texture lines -->
  <g opacity="0.03" stroke="#ffffff" stroke-width="0.5">
    <line x1="0" y1="515" x2="800" y2="515" />
    <line x1="0" y1="525" x2="800" y2="525" />
    <line x1="0" y1="535" x2="800" y2="535" />
    <line x1="0" y1="545" x2="800" y2="545" />
    <line x1="0" y1="555" x2="800" y2="555" />
    <line x1="0" y1="565" x2="800" y2="565" />
    <line x1="0" y1="575" x2="800" y2="575" />
    <line x1="0" y1="585" x2="800" y2="585" />
    <line x1="0" y1="595" x2="800" y2="595" />
  </g>
  
  <!-- Wall/floor divider (baseboard) -->
  <rect x="0" y="505" width="800" height="5" fill="rgba(208, 208, 208, 0.4)" />
  
  <!-- Office furniture elements (with opacity 0.6) -->
  <g opacity="0.6">
    <!-- Filing cabinet -->
    <g transform="translate(80, 420)">
      <rect x="0" y="0" width="60" height="90" fill="url(#cabinetGradient)" />
      <!-- Cabinet drawers -->
      <rect x="2" y="2" width="56" height="26" fill="#c9c9c9" />
      <rect x="2" y="32" width="56" height="26" fill="#c9c9c9" />
      <rect x="2" y="62" width="56" height="26" fill="#c9c9c9" />
      <!-- Drawer handles -->
      <rect x="20" y="12" width="20" height="6" fill="#a0a0a0" />
      <rect x="20" y="42" width="20" height="6" fill="#a0a0a0" />
      <rect x="20" y="72" width="20" height="6" fill="#a0a0a0" />
      <!-- Shadow -->
      <rect x="0" y="85" width="60" height="5" fill="rgba(0, 0, 0, 0.05)" />
    </g>
    
    <!-- Bookshelf -->
    <g transform="translate(560, 390)">
      <rect x="0" y="0" width="100" height="120" fill="url(#shelfGradient)" />
      <!-- Shelves -->
      <rect x="0" y="30" width="100" height="4" fill="#a09080" />
      <rect x="0" y="60" width="100" height="4" fill="#a09080" />
      <rect x="0" y="90" width="100" height="4" fill="#a09080" />
      
      <!-- Books on first shelf -->
      <g transform="translate(5, 10)">
        <rect x="0" y="0" width="12" height="20" fill="#f08080" />
        <rect x="13" y="0" width="8" height="20" fill="#90c0e0" />
        <rect x="22" y="0" width="15" height="20" fill="#90c090" />
        <rect x="38" y="0" width="10" height="20" fill="#f0e090" />
        <rect x="49" y="0" width="14" height="20" fill="#c090c0" />
        <rect x="64" y="0" width="12" height="20" fill="#e0a080" />
        <rect x="77" y="0" width="9" height="20" fill="#a0b0b8" />
      </g>
      
      <!-- Books on second shelf -->
      <g transform="translate(5, 40)">
        <rect x="0" y="0" width="10" height="20" fill="#e0a080" />
        <rect x="11" y="0" width="15" height="20" fill="#90c0e0" />
        <rect x="27" y="0" width="8" height="20" fill="#c090c0" />
        <rect x="36" y="0" width="12" height="20" fill="#90c090" />
        <rect x="49" y="0" width="14" height="20" fill="#f08080" />
        <rect x="64" y="0" width="10" height="20" fill="#f0e090" />
      </g>
      
      <!-- Books on third shelf -->
      <g transform="translate(5, 70)">
        <rect x="0" y="0" width="14" height="20" fill="#90c0e0" />
        <rect x="15" y="0" width="10" height="20" fill="#90c090" />
        <rect x="26" y="0" width="12" height="20" fill="#f08080" />
        <rect x="39" y="0" width="8" height="20" fill="#f0e090" />
        <rect x="48" y="0" width="15" height="20" fill="#e0a080" />
        <rect x="64" y="0" width="10" height="20" fill="#c090c0" />
        <rect x="75" y="0" width="11" height="20" fill="#a0b0b8" />
      </g>
      
      <!-- Shadow -->
      <rect x="0" y="115" width="100" height="5" fill="rgba(0, 0, 0, 0.05)" />
    </g>
    
    <!-- Desk -->
    <g transform="translate(240, 470)">
      <rect x="0" y="0" width="150" height="40" fill="url(#deskGradient)" />
      <!-- Desk legs -->
      <rect x="10" y="40" width="10" height="30" fill="#c0b0a8" />
      <rect x="130" y="40" width="10" height="30" fill="#c0b0a8" />
      <!-- Monitor -->
      <rect x="30" y="-30" width="40" height="25" fill="#808080" />
      <rect x="45" y="-5" width="10" height="5" fill="#606060" />
      <!-- Desk pad -->
      <rect x="80" y="5" width="40" height="25" fill="#a0b0b8" />
    </g>
    
    <!-- Clock -->
    <g transform="translate(400, 120)">
      <circle cx="0" cy="0" r="30" fill="#fafafa" />
      <circle cx="0" cy="0" r="30" fill="none" stroke="#a0a0a0" stroke-width="1.5" />
      <!-- Hour hand -->
      <line x1="0" y1="0" x2="15" y2="9" stroke="#808080" stroke-width="2" />
      <!-- Minute hand -->
      <line x1="0" y1="0" x2="-6" y2="-21" stroke="#808080" stroke-width="1.5" />
    </g>
    
    <!-- Picture frame -->
    <g transform="translate(680, 180)">
      <rect x="-3" y="-3" width="66" height="46" fill="#c0b0a8" />
      <rect x="0" y="0" width="60" height="40" fill="url(#pictureGradient)" />
      <!-- Mountain scene -->
      <path d="M 12 24 L 21 12 L 30 20 L 42 8 L 54 20 L 60 28 L 60 40 L 0 40 L 0 28 Z" fill="#ffffff" />
    </g>
    
    <!-- Window -->
    <g transform="translate(120, 120)">
      <rect x="0" y="0" width="90" height="70" fill="#ffffff" />
      <rect x="5" y="5" width="80" height="60" fill="url(#skyGradient)" />
      <!-- Window divisions -->
      <rect x="45" y="0" width="3" height="70" fill="#e8e8e8" />
      <rect x="0" y="35" width="90" height="3" fill="#e8e8e8" />
      <!-- Clouds -->
      <g fill="#ffffff">
        <!-- Cloud 1 -->
        <circle cx="20" cy="15" r="8" />
        <circle cx="30" cy="12" r="10" />
        <circle cx="40" cy="15" r="8" />
        <!-- Cloud 2 -->
        <circle cx="60" cy="25" r="10" />
        <circle cx="70" cy="20" r="8" />
        <circle cx="50" cy="22" r="7" />
      </g>
    </g>
  </g>
  
  <!-- Edge shading for depth (full opacity) -->
  <rect x="0" y="0" width="800" height="600" fill="url(#edgeGradient)" />
</svg> 