<?xml version="1.0" encoding="UTF-8" standalone="no"?>
<svg width="800" height="600" viewBox="0 0 800 600" xmlns="http://www.w3.org/2000/svg">
  <!-- Base wall color - gradient from top to bottom (more modern office) -->
  <defs>
    <linearGradient id="wallGradient" x1="0%" y1="0%" x2="0%" y2="100%">
      <stop offset="0%" stop-color="#f0f4f8" />
      <stop offset="100%" stop-color="#e0e8f0" />
    </linearGradient>
    
    <!-- Floor carpet gradient (darker, more modern) -->
    <linearGradient id="carpetGradient" x1="0%" y1="0%" x2="0%" y2="100%">
      <stop offset="0%" stop-color="rgba(60, 80, 100, 0.3)" />
      <stop offset="100%" stop-color="rgba(40, 60, 80, 0.4)" />
    </linearGradient>
    
    <!-- Edge gradient for depth -->
    <linearGradient id="edgeGradient" x1="0%" y1="0%" x2="30%" y2="30%">
      <stop offset="0%" stop-color="rgba(0, 0, 0, 0.1)" />
      <stop offset="100%" stop-color="rgba(0, 0, 0, 0)" />
    </linearGradient>
    
    <!-- Modern desk gradient -->
    <linearGradient id="modernDeskGradient" x1="0%" y1="0%" x2="100%" y2="100%">
      <stop offset="0%" stop-color="#ffffff" />
      <stop offset="100%" stop-color="#f0f0f0" />
    </linearGradient>
    
    <!-- Screen gradient -->
    <linearGradient id="screenGradient" x1="0%" y1="0%" x2="100%" y2="100%">
      <stop offset="0%" stop-color="#303840" />
      <stop offset="100%" stop-color="#202830" />
    </linearGradient>
    
    <!-- Window view gradient (city skyline) -->
    <linearGradient id="skylineGradient" x1="0%" y1="0%" x2="0%" y2="100%">
      <stop offset="0%" stop-color="#7090b0" />
      <stop offset="60%" stop-color="#90a8c0" />
      <stop offset="100%" stop-color="#b0c0d0" />
    </linearGradient>
    
    <!-- Plant pot gradient -->
    <linearGradient id="potGradient" x1="0%" y1="0%" x2="100%" y2="100%">
      <stop offset="0%" stop-color="#a06048" />
      <stop offset="100%" stop-color="#805038" />
    </linearGradient>
    
    <!-- Modern painting gradient -->
    <linearGradient id="paintingGradient" x1="0%" y1="0%" x2="100%" y2="100%">
      <stop offset="0%" stop-color="#4080b0" />
      <stop offset="50%" stop-color="#50a0d0" />
      <stop offset="100%" stop-color="#70b0e0" />
    </linearGradient>
  </defs>
  
  <!-- Wall background -->
  <rect x="0" y="0" width="800" height="600" fill="url(#wallGradient)" />
  
  <!-- Floor carpet -->
  <rect x="0" y="510" width="800" height="90" fill="url(#carpetGradient)" />
  
  <!-- Carpet texture (more subtle grid pattern) -->
  <g opacity="0.04" stroke="#ffffff" stroke-width="0.5">
    <line x1="0" y1="520" x2="800" y2="520" />
    <line x1="0" y1="540" x2="800" y2="540" />
    <line x1="0" y1="560" x2="800" y2="560" />
    <line x1="0" y1="580" x2="800" y2="580" />
    
    <!-- Vertical lines for grid pattern -->
    <line x1="100" y1="510" x2="100" y2="600" />
    <line x1="200" y1="510" x2="200" y2="600" />
    <line x1="300" y1="510" x2="300" y2="600" />
    <line x1="400" y1="510" x2="400" y2="600" />
    <line x1="500" y1="510" x2="500" y2="600" />
    <line x1="600" y1="510" x2="600" y2="600" />
    <line x1="700" y1="510" x2="700" y2="600" />
  </g>
  
  <!-- Wall/floor divider (modern trim) -->
  <rect x="0" y="505" width="800" height="5" fill="rgba(180, 190, 200, 0.5)" />
  
  <!-- Modern office elements with opacity -->
  <g opacity="0.6">
    <!-- Large window with city view -->
    <g transform="translate(50, 100)">
      <rect x="0" y="0" width="200" height="180" fill="#ffffff" stroke="#e0e0e0" stroke-width="2" />
      <rect x="5" y="5" width="190" height="170" fill="url(#skylineGradient)" />
      
      <!-- Window frame -->
      <rect x="98" y="0" width="4" height="180" fill="#e0e0e0" />
      <rect x="0" y="88" width="200" height="4" fill="#e0e0e0" />
      
      <!-- City skyline silhouette -->
      <path d="M 5,130 L 25,130 L 25,110 L 35,110 L 35,120 L 45,120 L 45,100 L 55,100 L 55,120 L 65,120 L 65,110 L 75,110 L 75,130 L 85,130 L 85,90 L 95,90 L 95,115 L 105,115 L 105,85 L 115,85 L 115,105 L 125,105 L 125,95 L 135,95 L 135,110 L 145,110 L 145,80 L 155,80 L 155,100 L 165,100 L 165,115 L 175,115 L 175,105 L 185,105 L 185,120 L 195,120 L 195,175 L 5,175 Z" fill="#304050" opacity="0.8" />
      
      <!-- Moon/sun -->
      <circle cx="150" cy="40" r="15" fill="#ffffff" opacity="0.8" />
    </g>
    
    <!-- Modern white desk with computers -->
    <g transform="translate(300, 470)">
      <rect x="0" y="0" width="300" height="35" rx="2" ry="2" fill="url(#modernDeskGradient)" stroke="#e0e0e0" stroke-width="1" />
      
      <!-- Desk legs - modern design -->
      <rect x="40" y="35" width="40" height="40" fill="#f0f0f0" stroke="#e0e0e0" stroke-width="1" />
      <rect x="220" y="35" width="40" height="40" fill="#f0f0f0" stroke="#e0e0e0" stroke-width="1" />
      
      <!-- Computer monitor 1 -->
      <g transform="translate(60, -50)">
        <rect x="0" y="0" width="65" height="40" rx="2" ry="2" fill="#505050" />
        <rect x="2" y="2" width="61" height="36" rx="1" ry="1" fill="url(#screenGradient)" />
        <rect x="27" y="40" width="10" height="5" fill="#404040" />
        <rect x="22" y="45" width="20" height="2" fill="#505050" />
      </g>
      
      <!-- Computer monitor 2 -->
      <g transform="translate(180, -45)">
        <rect x="0" y="0" width="70" height="35" rx="2" ry="2" fill="#505050" />
        <rect x="2" y="2" width="66" height="31" rx="1" ry="1" fill="url(#screenGradient)" />
        <rect x="30" y="35" width="10" height="5" fill="#404040" />
        <rect x="25" y="40" width="20" height="2" fill="#505050" />
      </g>
      
      <!-- Keyboard 1 -->
      <rect x="70" y="5" width="40" height="15" rx="1" ry="1" fill="#e0e0e0" />
      
      <!-- Keyboard 2 -->
      <rect x="190" y="8" width="40" height="12" rx="1" ry="1" fill="#e0e0e0" />
      
      <!-- Coffee cup -->
      <g transform="translate(140, 0)">
        <rect x="0" y="-15" width="8" height="15" rx="1" ry="1" fill="#d0d0d0" />
        <rect x="8" y="-12" width="2" height="8" fill="#b0b0b0" />
      </g>
    </g>
    
    <!-- Modern potted plant -->
    <g transform="translate(650, 460)">
      <rect x="0" y="0" width="40" height="50" rx="3" ry="3" fill="url(#potGradient)" />
      
      <!-- Plant stems and leaves -->
      <g fill="#60a060">
        <path d="M 20,0 L 15,-40 C 15,-45 25,-45 25,-40 L 20,0 Z" />
        <path d="M 20,0 L 0,-30 C -3,-34 5,-40 8,-36 L 20,0 Z" />
        <path d="M 20,0 L 40,-30 C 43,-34 35,-40 32,-36 L 20,0 Z" />
        
        <!-- Leaves -->
        <ellipse cx="15" cy="-40" rx="10" ry="6" />
        <ellipse cx="5" cy="-30" rx="8" ry="5" />
        <ellipse cx="35" cy="-30" rx="8" ry="5" />
        <ellipse cx="20" cy="-15" rx="5" ry="3" />
      </g>
    </g>
    
    <!-- Modern abstract wall art -->
    <g transform="translate(500, 150)">
      <rect x="-5" y="-5" width="110" height="85" rx="2" ry="2" fill="#ffffff" stroke="#e0e0e0" stroke-width="3" />
      <rect x="0" y="0" width="100" height="75" fill="url(#paintingGradient)" />
      
      <!-- Abstract shapes -->
      <circle cx="30" cy="20" r="15" fill="#f0f0f0" opacity="0.6" />
      <rect x="60" y="30" width="30" height="20" fill="#f0f0f0" opacity="0.5" />
      <path d="M 10,50 L 40,60 L 70,40 L 90,55" stroke="#ffffff" stroke-width="3" fill="none" />
    </g>
    
    <!-- Modern light fixture -->
    <g transform="translate(350, 30)">
      <line x1="0" y1="0" x2="0" y2="50" stroke="#d0d0d0" stroke-width="2" />
      <ellipse cx="0" cy="50" rx="30" ry="10" fill="#f0f0f0" stroke="#e0e0e0" stroke-width="1" />
      <ellipse cx="0" cy="48" rx="25" ry="8" fill="#ffffff" />
    </g>
    
    <!-- Small meeting area -->
    <g transform="translate(150, 400)">
      <!-- Round table -->
      <circle cx="0" cy="0" r="25" fill="#f0f0f0" />
      <circle cx="0" cy="0" r="23" fill="#ffffff" />
      
      <!-- Chair 1 -->
      <rect x="-35" y="-10" width="20" height="20" rx="3" ry="3" fill="#a0a0a0" />
      
      <!-- Chair 2 -->
      <rect x="15" y="-10" width="20" height="20" rx="3" ry="3" fill="#a0a0a0" />
      
      <!-- Chair 3 -->
      <rect x="-10" y="15" width="20" height="20" rx="3" ry="3" fill="#a0a0a0" />
    </g>
  </g>
  
  <!-- Edge shading for depth (full opacity) -->
  <rect x="0" y="0" width="800" height="600" fill="url(#edgeGradient)" />
</svg> 